<svg id="visual" viewBox="0 0 900 600" width="900" height="600" xmlns="http://www.w3.org/2000/svg" xmlns:xlink="http://www.w3.org/1999/xlink" version="1.1"><rect width="900" height="600" fill="#28485B"></rect><g><g transform="translate(451 402)"><path d="M83.1 -22.7C96.4 13.9 88.1 61.8 58.5 84.2C29 106.5 -21.8 103.2 -53.1 79.1C-84.3 54.9 -96 10 -83.9 -24.9C-71.8 -59.8 -35.9 -84.7 -0.5 -84.5C34.9 -84.4 69.9 -59.2 83.1 -22.7Z" fill="#feaf58"></path></g><g transform="translate(269 107)"><path d="M69.7 -25.9C79 5.9 67.3 41.2 41.2 61.2C15.2 81.1 -25.2 85.7 -51.9 67.3C-78.6 48.9 -91.6 7.5 -80.7 -26.7C-69.8 -60.8 -34.9 -87.5 -2.3 -86.8C30.2 -86 60.4 -57.7 69.7 -25.9Z" fill="#feaf58"></path></g><g transform="translate(43 463)"><path d="M90.6 -30.5C101 2.6 81.7 44.3 48.6 68.8C15.5 93.3 -31.5 100.6 -63.1 79.4C-94.6 58.2 -110.9 8.5 -97.8 -28.4C-84.7 -65.2 -42.4 -89.1 -1.1 -88.7C40.1 -88.3 80.2 -63.7 90.6 -30.5Z" fill="#feaf58"></path></g><g transform="translate(813 173)"><path d="M88.6 -31.7C98.9 2.9 80.4 44 50.4 64.7C20.5 85.3 -20.9 85.5 -47.4 66.1C-73.8 46.7 -85.3 7.6 -74.9 -27.1C-64.5 -61.9 -32.3 -92.3 3.4 -93.4C39.1 -94.5 78.3 -66.3 88.6 -31.7Z" fill="#feaf58"></path></g><g transform="translate(710 583)"><path d="M79.6 -24.8C91 9.3 79.8 51.9 53.7 69.9C27.6 87.9 -13.5 81.5 -41 60.5C-68.5 39.6 -82.5 4.1 -73.4 -26.8C-64.3 -57.8 -32.2 -84.2 1 -84.5C34.1 -84.8 68.1 -59 79.6 -24.8Z" fill="#feaf58"></path></g></g></svg>